<?xml version="1.0" ?><svg id="Layer_1" style="enable-background:new 0 0 512 512;" version="1.1" viewBox="0 0 512 512" xml:space="preserve" xmlns="http://www.w3.org/2000/svg" xmlns:xlink="http://www.w3.org/1999/xlink"><style type="text/css">
	.st0{fill:#AF7D6E;}
	.st1{fill:#9F7368;}
	.st2{fill:#851619;}
	.st3{fill:#454548;}
	.st4{fill:#1C1C23;}
	.st5{fill:#521110;}
	.st6{fill:#AEA498;}
	.st7{fill:#37373A;}
	.st8{fill:#AD774B;}
	.st9{fill:#EDB17A;}
	.st10{fill:#232528;}
	.st11{fill:#7B8444;}
	.st12{fill:#C7DE88;}
	.st13{fill:#757E8E;}
	.st14{fill:#FFFFFF;}
	.st15{fill:#231F20;}
	.st16{fill:#93A491;}
</style><g id="XMLID_41_"><circle class="st0" cx="256" cy="256" id="XMLID_14_" r="256"/><path class="st1" d="M511.9,262.6c-55.3-55.5-145.1-145.2-146.3-145.9c-2-3-5.1-5.3-8.9-6.1   c-8.1-2.3-11.3-2.7-15.1-3.8c-71.5-20.1-146-7.6-178,0.7c-7.3,1.9-12.8,3.6-16.1,4.7l-1.7,0.6c-1.2,0.4-2,1.5-2,2.7v1.7   c0,0,0,0,0,0v295.8c0,0,0,0,0,0c0.2,1.4,1.2,2.4,2.5,2.7c0.1,0,0.2,0,0.2,0c0,0,0,0,0,0h0.4c0,0,53.3,53.9,94.8,95.6   c4.6,0.3,9.3,0.4,14,0.4C395.2,512,508.4,401,511.9,262.6z" id="XMLID_48_"/><g id="XMLID_2240_"><g id="XMLID_5279_"><path class="st2" d="M368,406.8l0-281.2c0-5.6-3.9-10.4-9.3-11.6c-6.2-1.4-13.2-2.7-17.4-3.8     c-71.5-20.1-145.5-8-177.6,0.4c-7.3,1.9-12.8,3.6-16.1,4.7c-2,0.7-3.2,1.1-3.5,1.2c-0.1,0-0.1,0-0.1,0v296.3     c0,1.8,1.4,3.2,3.2,3.2h211.6C363.9,416,368,411.9,368,406.8z" id="XMLID_5294_"/><path class="st3" d="M356.8,110.6c-8.1-2.3-11.3-2.7-15.1-3.8c-71.5-20.1-146-7.6-178,0.7     c-7.3,1.9-12.8,3.6-16.1,4.7l-0.1,0c-2.1,0.7-3.6,2.8-3.6,5v295.8c1.1,1.1,1.7,1.7,2.8,2.8l215.4,0c3.2,0,5.7-2.6,5.7-5.7     l0-285.7C368,117.8,363.3,112,356.8,110.6z" id="XMLID_1940_"/><path class="st4" d="M144,115.6l0,297.2c0,1.8,1.4,3.2,3.2,3.2h0.4V112.3l-1.7,0.6     C144.8,113.3,144,114.4,144,115.6z" id="XMLID_5295_"/><g id="XMLID_5282_"><path class="st5" d="M341.5,114.4h-89.1c-0.9,0-1.6,0.7-1.6,1.6v13.7c0,0.9,0.7,1.6,1.6,1.6h89.1      c0.9,0,1.6-0.7,1.6-1.6V116C343.1,115.1,342.4,114.4,341.5,114.4z M341.7,129.8c0,0.1-0.1,0.2-0.2,0.2h-89.1      c-0.1,0-0.2-0.1-0.2-0.2V116c0-0.1,0.1-0.2,0.2-0.2h89.1c0.1,0,0.2,0.1,0.2,0.2V129.8z" id="XMLID_5289_"/><path class="st6" d="M341.7,129.8c0,0.1-0.1,0.2-0.2,0.2h-89.1c-0.1,0-0.2-0.1-0.2-0.2V116      c0-0.1,0.1-0.2,0.2-0.2h89.1c0.1,0,0.2,0.1,0.2,0.2V129.8z" id="XMLID_5288_"/><rect class="st7" height="14.2" id="XMLID_5287_" width="0.7" x="267.1" y="115.8"/><rect class="st7" height="14.2" id="XMLID_5286_" width="0.7" x="282.5" y="115.8"/><rect class="st7" height="14.2" id="XMLID_5285_" width="0.7" x="296.9" y="115.8"/><rect class="st7" height="14.2" id="XMLID_5284_" width="0.7" x="326.8" y="115.8"/><rect class="st7" height="14.2" id="XMLID_5283_" width="0.7" x="311.9" y="115.8"/></g><rect class="st4" height="5.2" id="XMLID_5281_" width="224" x="144" y="225.9"/><rect class="st4" height="179.6" id="XMLID_5280_" width="3.6" x="144" y="226.8"/></g><g id="XMLID_4937_"><g id="XMLID_5234_"><g id="XMLID_5276_"><polygon class="st8" id="XMLID_5278_" points="177.4,405.3 152.1,405.3 152.4,362.2 177.8,362.2      "/><polygon class="st9" id="XMLID_5277_" points="176.8,404.7 151.4,404.7 151.7,361.6 177.1,361.6      "/></g><g id="XMLID_5273_"><rect class="st8" height="17.2" id="XMLID_5275_" width="25.4" x="152.2" y="308.5"/><rect class="st9" height="17.2" id="XMLID_5274_" width="25.4" x="151.6" y="307.8"/></g><g id="XMLID_5270_"><rect class="st8" height="17.2" id="XMLID_5272_" width="25.4" x="152.2" y="283"/><rect class="st9" height="17.2" id="XMLID_5271_" width="25.4" x="151.6" y="282.3"/></g><g id="XMLID_5267_"><rect class="st8" height="17.2" id="XMLID_5269_" width="25.4" x="152.2" y="257.5"/><rect class="st9" height="17.2" id="XMLID_5268_" width="25.4" x="151.6" y="256.8"/></g><g id="XMLID_5264_"><rect class="st8" height="17.2" id="XMLID_5266_" width="25.4" x="152.2" y="335"/><rect class="st9" height="17.2" id="XMLID_5265_" width="25.4" x="151.6" y="334.4"/></g><g id="XMLID_5259_"><path class="st10" d="M161.8,267.4L161.8,267.4l1.3-5h1.7v6.8h-1.3v-4.3l0,0l-1.3,4.3h-0.9l-1.2-4.3l0,0v4.3       h-1.3v-6.8h1.7L161.8,267.4z" id="XMLID_5262_"/><path class="st10" d="M170.4,267L170.4,267c0,0.8-0.2,1.3-0.6,1.7c-0.4,0.4-1,0.6-1.7,0.6       c-0.7,0-1.3-0.2-1.8-0.7c-0.4-0.5-0.7-1.1-0.7-1.9v-1.7c0-0.8,0.2-1.5,0.6-1.9c0.4-0.5,1-0.7,1.7-0.7c0.8,0,1.3,0.2,1.7,0.6       c0.4,0.4,0.6,0.9,0.6,1.7l0,0h-1.3c0-0.4-0.1-0.8-0.2-1c-0.2-0.2-0.4-0.3-0.8-0.3c-0.3,0-0.6,0.1-0.8,0.4       c-0.2,0.3-0.3,0.7-0.3,1.2v1.8c0,0.5,0.1,0.9,0.3,1.2c0.2,0.3,0.5,0.4,0.8,0.4c0.3,0,0.6-0.1,0.7-0.3c0.1-0.2,0.2-0.5,0.2-1       H170.4z" id="XMLID_5260_"/></g><g id="XMLID_5253_"><path class="st10" d="M161.6,292.9L161.6,292.9l1.4-5.2h1.8v7h-1.4v-4.4l0,0l-1.3,4.4h-0.9l-1.3-4.4l0,0v4.4       h-1.4v-7h1.8L161.6,292.9z" id="XMLID_5257_"/><path class="st10" d="M167.2,292v2.8h-1.4v-7h2.1c0.7,0,1.3,0.2,1.7,0.5c0.4,0.4,0.6,0.9,0.6,1.5       c0,0.4-0.1,0.7-0.3,0.9c-0.2,0.3-0.4,0.5-0.7,0.6c0.4,0.1,0.6,0.3,0.8,0.6c0.2,0.3,0.2,0.6,0.2,1.1v0.5c0,0.2,0,0.4,0.1,0.6       c0,0.2,0.1,0.4,0.2,0.5v0.1h-1.4c-0.1-0.1-0.2-0.3-0.2-0.5c0-0.2,0-0.5,0-0.7v-0.5c0-0.4-0.1-0.6-0.2-0.8       c-0.2-0.2-0.4-0.3-0.7-0.3H167.2z M167.2,290.9h0.8c0.3,0,0.5-0.1,0.7-0.3c0.2-0.2,0.2-0.4,0.2-0.7c0-0.3-0.1-0.6-0.2-0.8       c-0.2-0.2-0.4-0.3-0.7-0.3h-0.8V290.9z" id="XMLID_5254_"/></g><g id="XMLID_5248_"><path class="st10" d="M161.9,318.4L161.9,318.4l1.3-5h1.7v6.8h-1.3v-4.3l0,0l-1.3,4.3h-0.9l-1.2-4.3l0,0v4.3       h-1.3v-6.8h1.7L161.9,318.4z" id="XMLID_5251_"/><path class="st10" d="M169,318.4c0-0.3-0.1-0.5-0.2-0.6c-0.1-0.2-0.4-0.3-0.7-0.5c-0.7-0.2-1.2-0.5-1.6-0.8       c-0.3-0.3-0.5-0.8-0.5-1.3c0-0.6,0.2-1,0.6-1.4c0.4-0.3,0.9-0.5,1.5-0.5c0.7,0,1.2,0.2,1.6,0.6c0.4,0.4,0.6,0.9,0.6,1.5l0,0       h-1.3c0-0.4-0.1-0.6-0.2-0.8c-0.1-0.2-0.4-0.3-0.6-0.3c-0.3,0-0.4,0.1-0.6,0.2c-0.1,0.2-0.2,0.4-0.2,0.6c0,0.2,0.1,0.4,0.2,0.6       c0.1,0.1,0.4,0.3,0.8,0.5c0.7,0.2,1.2,0.5,1.5,0.8c0.3,0.3,0.5,0.8,0.5,1.3c0,0.6-0.2,1-0.6,1.4c-0.4,0.3-0.9,0.5-1.6,0.5       c-0.7,0-1.2-0.2-1.7-0.5c-0.5-0.4-0.7-0.9-0.7-1.6l0,0h1.3c0,0.4,0.1,0.7,0.3,0.9c0.2,0.2,0.4,0.3,0.8,0.3       c0.3,0,0.5-0.1,0.6-0.2C169,318.9,169,318.6,169,318.4z" id="XMLID_5249_"/></g><g id="XMLID_5243_"><path class="st10" d="M162,345L162,345l1.4-5.2h1.8v7h-1.4v-4.4l0,0l-1.3,4.4h-0.9l-1.3-4.4l0,0v4.4h-1.4v-7       h1.8L162,345z" id="XMLID_5246_"/><path class="st10" d="M168.8,342.9h1.5v1.2h-1.5v2h-1.3v-2h-1.5v-1.2h1.5V341h1.3V342.9z" id="XMLID_5244_"/></g><g id="XMLID_5235_"><path class="st10" d="M160,384.3v2.6h-1.3v-6.4h2.3c0.7,0,1.3,0.2,1.7,0.5c0.4,0.3,0.6,0.8,0.6,1.4       c0,0.3-0.1,0.6-0.3,0.9c-0.2,0.2-0.4,0.4-0.8,0.6c0.4,0.1,0.7,0.3,0.8,0.6c0.2,0.3,0.2,0.6,0.2,1v0.5c0,0.2,0,0.4,0.1,0.6       c0,0.2,0.1,0.3,0.2,0.4v0.1h-1.3c-0.1-0.1-0.2-0.3-0.2-0.5c0-0.2-0.1-0.4-0.1-0.6v-0.5c0-0.3-0.1-0.6-0.3-0.7       c-0.2-0.2-0.4-0.3-0.7-0.3H160z M160,383.3h0.9c0.4,0,0.6-0.1,0.8-0.2c0.2-0.2,0.3-0.4,0.3-0.7c0-0.3-0.1-0.5-0.3-0.7       c-0.2-0.2-0.4-0.3-0.8-0.3h-1V383.3z" id="XMLID_5240_"/><path class="st10" d="M166.4,386c0.2,0,0.4-0.1,0.5-0.2c0.1-0.1,0.2-0.3,0.2-0.5h1.2l0,0       c0,0.5-0.2,0.9-0.5,1.2c-0.4,0.3-0.8,0.5-1.4,0.5c-0.7,0-1.3-0.2-1.6-0.7c-0.4-0.5-0.6-1-0.6-1.7v-0.1c0-0.7,0.2-1.3,0.6-1.7       c0.4-0.5,0.9-0.7,1.6-0.7c0.6,0,1.1,0.2,1.4,0.5c0.4,0.3,0.5,0.8,0.5,1.3l0,0h-1.2c0-0.2-0.1-0.5-0.2-0.6       c-0.1-0.2-0.3-0.2-0.5-0.2c-0.3,0-0.6,0.1-0.7,0.4c-0.1,0.3-0.2,0.6-0.2,1v0.1c0,0.4,0.1,0.8,0.2,1       C165.8,385.8,166.1,386,166.4,386z" id="XMLID_5238_"/><path class="st10" d="M170.4,386.9h-1.3V380h1.3V386.9z" id="XMLID_5236_"/></g></g><g id="XMLID_5185_"><g id="XMLID_5231_"><rect class="st11" height="17.2" id="XMLID_5233_" width="25.4" x="304.6" y="361.6"/><rect class="st12" height="17.2" id="XMLID_5232_" width="25.4" x="303.9" y="360.9"/></g><g id="XMLID_5228_"><rect class="st11" height="17.2" id="XMLID_5230_" width="25.4" x="304.6" y="388.1"/><rect class="st12" height="17.2" id="XMLID_5229_" width="25.4" x="303.9" y="387.4"/></g><rect class="st10" height="1.5" id="XMLID_5227_" width="9.5" x="312.2" y="369.1"/><g id="XMLID_5224_"><rect class="st10" height="1.5" id="XMLID_5226_" width="9.5" x="312.2" y="393.3"/><rect class="st10" height="1.5" id="XMLID_5225_" width="9.5" x="312.2" y="397.9"/></g><g id="XMLID_5221_"><rect class="st11" height="17.2" id="XMLID_5223_" width="25.4" x="304.6" y="335"/><rect class="st12" height="17.2" id="XMLID_5222_" width="25.4" x="303.9" y="334.4"/></g><g id="XMLID_5215_"><path class="st10" d="M314.5,343h-0.9v-3.7l-0.7,0v-0.7l1.6-0.2V343z" id="XMLID_5219_"/><path class="st10" d="M319.5,345.5L319.5,345.5l0.5-1.2h1.2l-1,1.9l1,2h-1.1l-0.5-1.3h0l-0.5,1.3h-1.2l1-2       l-1-1.9h1.1L319.5,345.5z" id="XMLID_5217_"/><rect class="st10" height="1.5" id="XMLID_5216_" transform="matrix(-0.7071 0.7071 -0.7071 -0.7071 783.4943 362.2922)" width="9.5" x="311.9" y="342.6"/></g><g id="XMLID_5212_"><rect class="st11" height="17.2" id="XMLID_5214_" width="25.4" x="304.6" y="308.5"/><rect class="st12" height="17.2" id="XMLID_5213_" width="25.4" x="303.9" y="307.8"/></g><g id="XMLID_5204_"><rect class="st10" height="1.1" id="XMLID_5211_" transform="matrix(-0.7071 0.7071 -0.7071 -0.7071 765.0437 316.646)" width="6.9" x="313.5" y="316.2"/><path class="st10" d="M315.1,313.3c-0.7,0-1.2,0.7-1.2,1.6c0,0.9,0.5,1.6,1.2,1.6c0.7,0,1.2-0.7,1.2-1.6       C316.3,314,315.7,313.3,315.1,313.3z M315.1,315.6c-0.3,0-0.5-0.3-0.5-0.7c0-0.4,0.2-0.7,0.5-0.7c0.3,0,0.5,0.3,0.5,0.7       C315.6,315.3,315.4,315.6,315.1,315.6z" id="XMLID_5208_"/><path class="st10" d="M318.8,317.1c-0.7,0-1.2,0.7-1.2,1.6c0,0.9,0.5,1.6,1.2,1.6c0.7,0,1.2-0.7,1.2-1.6       C320,317.8,319.5,317.1,318.8,317.1z M318.8,319.4c-0.3,0-0.5-0.3-0.5-0.7c0-0.4,0.2-0.7,0.5-0.7c0.3,0,0.5,0.3,0.5,0.7       C319.4,319,319.1,319.4,318.8,319.4z" id="XMLID_5205_"/></g><g id="XMLID_5201_"><rect class="st11" height="17.2" id="XMLID_5203_" width="25.4" x="304.6" y="283"/><rect class="st12" height="17.2" id="XMLID_5202_" width="25.4" x="303.9" y="282.3"/></g><g id="XMLID_5197_"><g id="XMLID_5198_"><rect class="st11" height="17.2" id="XMLID_5200_" width="25.4" x="304.6" y="257.5"/><rect class="st12" height="17.2" id="XMLID_5199_" width="25.4" x="303.9" y="256.8"/></g></g><g id="XMLID_5192_"><path class="st10" d="M316.8,268.5c-0.2,0.3-0.5,0.5-0.8,0.7c-0.4,0.2-0.8,0.3-1.4,0.3       c-0.7,0-1.3-0.2-1.8-0.7c-0.4-0.4-0.7-1.1-0.7-1.9v-1.8c0-0.8,0.2-1.4,0.7-1.9c0.4-0.5,1-0.7,1.7-0.7c0.7,0,1.3,0.2,1.7,0.5       c0.4,0.4,0.6,0.9,0.6,1.5l0,0h-1.2c0-0.4-0.1-0.6-0.2-0.8c-0.2-0.2-0.4-0.3-0.7-0.3c-0.3,0-0.6,0.1-0.8,0.4       c-0.2,0.3-0.3,0.6-0.3,1.1v1.8c0,0.5,0.1,0.9,0.3,1.1c0.2,0.3,0.5,0.4,0.8,0.4c0.3,0,0.5,0,0.6-0.1c0.1-0.1,0.3-0.2,0.3-0.3       v-1.3h-1v-0.9h2.4V268.5z" id="XMLID_5195_"/><path class="st10" d="M321.8,263.8h-1.6v5.7h-1.3v-5.7h-1.6v-1h4.5V263.8z" id="XMLID_5193_"/></g><g id="XMLID_5186_"><path class="st10" d="M315.2,289.7l0.1,0.7c0.1-0.2,0.3-0.4,0.5-0.6c0.2-0.1,0.4-0.2,0.7-0.2       c0.4,0,0.7,0.2,1,0.5c0.2,0.3,0.4,0.8,0.4,1.5v2.9h-1.3v-2.9c0-0.4,0-0.6-0.1-0.8c-0.1-0.1-0.2-0.2-0.4-0.2       c-0.1,0-0.3,0-0.4,0.1c-0.1,0.1-0.2,0.2-0.3,0.3v3.5H314v-4.7H315.2z" id="XMLID_5190_"/><path class="st10" d="M319.9,292.2h-1.3v-4.1h1.3V292.2z M319.8,294.4h-1.2v-1.1h1.2V294.4z" id="XMLID_5187_"/></g></g><g id="XMLID_5150_"><g id="XMLID_5182_"><polygon class="st11" id="XMLID_5184_" points="299.3,405.3 273.9,405.3 274.3,362.2 299.7,362.2      "/><polygon class="st12" id="XMLID_5183_" points="298.7,404.7 273.3,404.7 273.6,361.6 299,361.6      "/></g><g id="XMLID_5179_"><rect class="st10" height="1.5" id="XMLID_5181_" width="9.5" x="281.7" y="382.7"/><rect class="st10" height="9.5" id="XMLID_5180_" width="1.5" x="285.7" y="378.7"/></g><g id="XMLID_5176_"><rect class="st11" height="17.2" id="XMLID_5178_" width="25.4" x="274.1" y="335"/><rect class="st12" height="17.2" id="XMLID_5177_" width="25.4" x="273.4" y="334.4"/></g><g id="XMLID_5173_"><rect class="st10" height="1.5" id="XMLID_5175_" transform="matrix(0.7071 0.7071 -0.7071 0.7071 326.6631 -102.0122)" width="9.5" x="281.7" y="342.5"/><rect class="st10" height="1.5" id="XMLID_5174_" transform="matrix(-0.7071 0.7071 -0.7071 -0.7071 731.7945 383.5031)" width="9.5" x="281.7" y="342.5"/></g><g id="XMLID_5170_"><rect class="st11" height="17.2" id="XMLID_5172_" width="25.4" x="274.1" y="308.5"/><rect class="st12" height="17.2" id="XMLID_5171_" width="25.4" x="273.4" y="307.8"/></g><rect class="st10" height="1.5" id="XMLID_5169_" transform="matrix(-0.7071 0.7071 -0.7071 -0.7071 713.0261 338.1923)" width="9.5" x="281.7" y="316"/><g id="XMLID_5166_"><rect class="st11" height="17.2" id="XMLID_5168_" width="25.4" x="274.1" y="283"/><rect class="st12" height="17.2" id="XMLID_5167_" width="25.4" x="273.4" y="282.3"/></g><g id="XMLID_5162_"><g id="XMLID_5163_"><rect class="st11" height="17.2" id="XMLID_5165_" width="25.4" x="274.1" y="257.5"/><rect class="st12" height="17.2" id="XMLID_5164_" width="25.4" x="273.4" y="256.8"/></g></g><g id="XMLID_5156_"><path class="st10" d="M284.9,265.6L284.9,265.6l0.7-1.9h1.8l-1.6,3l1.6,3h-1.8l-0.7-2h0l-0.7,2h-1.8l1.6-3       l-1.5-3h1.8L284.9,265.6z" id="XMLID_5160_"/><g id="XMLID_5157_"><path class="st10" d="M289.3,262.8L289.3,262.8L289.3,262.8l0.5-1.7h0.8l-1,3.3c-0.1,0.2-0.2,0.4-0.3,0.5        c-0.1,0.1-0.3,0.2-0.6,0.2c-0.1,0-0.1,0-0.2,0c0,0-0.1,0-0.2,0l0.1-0.6c0,0,0,0,0.1,0c0,0,0,0,0.1,0c0.1,0,0.2,0,0.3-0.1        c0.1-0.1,0.1-0.1,0.1-0.2l0.1-0.2l-0.9-2.9h0.8L289.3,262.8z" id="XMLID_5158_"/></g></g><g id="XMLID_5151_"><g id="XMLID_5153_"><rect class="st10" height="1" id="XMLID_5155_" width="6.1" x="283.4" y="289.4"/><rect class="st10" height="6.1" id="XMLID_5154_" width="1" x="286" y="286.8"/></g><rect class="st10" height="1" id="XMLID_5152_" width="6.1" x="283.4" y="294.7"/></g></g><g id="XMLID_5101_"><g id="XMLID_5143_"><g id="XMLID_5147_"><rect class="st10" height="17.2" id="XMLID_5149_" width="25.4" x="182.7" y="334.7"/><rect class="st13" height="17.2" id="XMLID_5148_" width="25.4" x="182" y="334"/></g><path class="st14" d="M197,344.4h0.8v1.4H197v1.7h-1.8v-1.7h-2.9l-0.1-1.1l3-6.1h1.8V344.4z M193.8,344.4h1.4       v-3.4l0,0l-0.1,0.3L193.8,344.4z" id="XMLID_5144_"/></g><g id="XMLID_5137_"><g id="XMLID_5140_"><rect class="st10" height="17.2" id="XMLID_5142_" width="25.4" x="182.7" y="361.2"/><rect class="st13" height="17.2" id="XMLID_5141_" width="25.4" x="182" y="360.6"/></g><path class="st14" d="M197.9,366.4c-0.9,1.4-1.5,2.4-1.8,3.1c-0.3,0.7-0.5,1.7-0.5,3.1v1.4h-1.8v-1.4       c0-1.3,0.2-2.4,0.6-3.3c0.4-0.9,1-1.8,1.7-2.9h-4.1v-1.4h5.7V366.4z" id="XMLID_5138_"/></g><g id="XMLID_5130_"><g id="XMLID_5134_"><rect class="st10" height="17.2" id="XMLID_5136_" width="25.4" x="182.7" y="388.1"/><rect class="st13" height="17.2" id="XMLID_5135_" width="25.4" x="182" y="387.4"/></g><path class="st14" d="M197.7,397.7c0,1-0.2,1.8-0.7,2.4c-0.5,0.6-1.1,0.9-2,0.9s-1.5-0.3-2-0.9       c-0.5-0.6-0.7-1.4-0.7-2.4v-2.6c0-1,0.2-1.8,0.7-2.4c0.5-0.6,1.1-0.9,2-0.9c0.8,0,1.5,0.3,2,0.9s0.7,1.4,0.7,2.4V397.7z        M196,395c0-0.6-0.1-1-0.3-1.4c-0.2-0.3-0.4-0.5-0.7-0.5c-0.3,0-0.5,0.2-0.7,0.5c-0.2,0.3-0.2,0.8-0.2,1.4v2.7       c0,0.6,0.1,1.1,0.2,1.4c0.2,0.3,0.4,0.5,0.7,0.5c0.3,0,0.5-0.2,0.7-0.5c0.2-0.3,0.2-0.8,0.2-1.4V395z" id="XMLID_5131_"/></g><g id="XMLID_5124_"><g id="XMLID_5127_"><rect class="st10" height="17.2" id="XMLID_5129_" width="25.4" x="182.7" y="308.1"/><rect class="st13" height="17.2" id="XMLID_5128_" width="25.4" x="182" y="307.5"/></g><path class="st14" d="M196.6,321h-1.8v-7.4l-1.4,0v-1.4l3.1-0.3V321z" id="XMLID_5125_"/></g><g id="XMLID_5120_"><g id="XMLID_5121_"><rect class="st10" height="17.2" id="XMLID_5123_" width="25.4" x="182.7" y="282.6"/><rect class="st13" height="17.2" id="XMLID_5122_" width="25.4" x="182" y="282"/></g></g><g id="XMLID_5116_"><g id="XMLID_5117_"><rect class="st10" height="17.2" id="XMLID_5119_" width="25.4" x="182.7" y="257.1"/><rect class="st13" height="17.2" id="XMLID_5118_" width="25.4" x="182" y="256.5"/></g></g><g id="XMLID_5111_"><path class="st14" d="M193.2,267.1L193.2,267.1l1.4-5.2h1.8v7H195v-4.4l0,0l-1.3,4.4h-0.9l-1.3-4.4l0,0v4.4       h-1.4v-7h1.8L193.2,267.1z" id="XMLID_5114_"/><path class="st14" d="M200,266.1h-2.5V265h2.5V266.1z" id="XMLID_5112_"/></g><g id="XMLID_5102_"><path class="st14" d="M190.6,291.9L190.6,291.9l1.2-4.7h1.6v6.3h-1.2v-4l0,0l-1.2,4h-0.8l-1.2-4l0,0v4h-1.2       v-6.3h1.6L190.6,291.9z" id="XMLID_5109_"/><path class="st14" d="M194.1,291.2c0-0.7,0.2-1.3,0.5-1.7c0.3-0.4,0.8-0.7,1.5-0.7s1.1,0.2,1.5,0.7       c0.3,0.4,0.5,1,0.5,1.7v0.1c0,0.7-0.2,1.3-0.5,1.7c-0.3,0.4-0.8,0.7-1.4,0.7c-0.6,0-1.1-0.2-1.5-0.7       C194.3,292.5,194.1,292,194.1,291.2L194.1,291.2z M195.4,291.3c0,0.4,0.1,0.8,0.2,1c0.1,0.3,0.3,0.4,0.6,0.4       c0.3,0,0.4-0.1,0.5-0.4c0.1-0.3,0.2-0.6,0.2-1v-0.1c0-0.4-0.1-0.8-0.2-1c-0.1-0.3-0.3-0.4-0.6-0.4c-0.3,0-0.4,0.1-0.6,0.4       C195.4,290.4,195.4,290.7,195.4,291.3L195.4,291.3z" id="XMLID_5106_"/><path class="st14" d="M198.6,291.2c0-0.7,0.1-1.3,0.4-1.8c0.3-0.5,0.7-0.7,1.2-0.7c0.2,0,0.4,0,0.5,0.1       c0.2,0.1,0.3,0.2,0.4,0.4v-2.5h1.2v6.8h-1.1l-0.1-0.5c-0.1,0.2-0.3,0.4-0.4,0.5c-0.2,0.1-0.4,0.2-0.6,0.2       c-0.5,0-0.9-0.2-1.2-0.6C198.7,292.6,198.6,292,198.6,291.2L198.6,291.2z M199.8,291.3c0,0.4,0.1,0.8,0.2,1       c0.1,0.2,0.3,0.4,0.5,0.4c0.1,0,0.3,0,0.4-0.1c0.1-0.1,0.2-0.2,0.3-0.3v-2.2c-0.1-0.1-0.2-0.2-0.3-0.3       c-0.1-0.1-0.2-0.1-0.3-0.1c-0.2,0-0.4,0.1-0.5,0.4C199.9,290.4,199.8,290.8,199.8,291.3L199.8,291.3z" id="XMLID_5103_"/></g></g><g id="XMLID_5044_"><g id="XMLID_5095_"><g id="XMLID_5098_"><rect class="st10" height="17.2" id="XMLID_5100_" width="25.4" x="213.2" y="335"/><rect class="st13" height="17.2" id="XMLID_5099_" width="25.4" x="212.5" y="334.4"/></g><path class="st14" d="M223.1,343.8l0.5-5h4.3v1.4H225l-0.2,2.2c0.1-0.1,0.3-0.2,0.5-0.3       c0.2-0.1,0.4-0.1,0.6-0.2c0.7,0,1.3,0.2,1.7,0.8c0.4,0.5,0.6,1.3,0.6,2.2c0,0.9-0.2,1.6-0.7,2.1c-0.4,0.6-1.1,0.8-2,0.8       c-0.7,0-1.3-0.2-1.8-0.7c-0.5-0.4-0.7-1-0.7-1.8l0,0l1.7-0.1c0,0.4,0.1,0.7,0.2,0.9s0.4,0.3,0.6,0.3c0.3,0,0.6-0.1,0.7-0.4       s0.2-0.7,0.2-1.2c0-0.5-0.1-0.9-0.2-1.3c-0.2-0.3-0.4-0.5-0.7-0.5c-0.2,0-0.4,0.1-0.5,0.2c-0.1,0.1-0.2,0.3-0.3,0.5       L223.1,343.8z" id="XMLID_5096_"/></g><g id="XMLID_5087_"><g id="XMLID_5092_"><rect class="st10" height="17.2" id="XMLID_5094_" width="25.4" x="213.2" y="361.6"/><rect class="st13" height="17.2" id="XMLID_5093_" width="25.4" x="212.5" y="360.9"/></g><path class="st14" d="M228,367.7c0,0.4-0.1,0.8-0.3,1.2c-0.2,0.3-0.5,0.6-0.8,0.8c0.4,0.2,0.8,0.5,1,0.9       c0.2,0.4,0.4,0.8,0.4,1.3c0,0.8-0.2,1.5-0.7,1.9c-0.5,0.5-1.1,0.7-1.9,0.7c-0.8,0-1.5-0.2-2-0.7c-0.5-0.5-0.8-1.1-0.8-1.9       c0-0.5,0.1-0.9,0.4-1.3c0.3-0.4,0.6-0.7,1-0.8c-0.4-0.2-0.7-0.5-0.9-0.8c-0.2-0.3-0.3-0.7-0.3-1.2c0-0.8,0.2-1.4,0.7-1.8       c0.5-0.4,1.1-0.6,1.9-0.6c0.7,0,1.3,0.2,1.8,0.6C227.8,366.3,228,366.9,228,367.7z M226.5,371.7c0-0.4-0.1-0.7-0.3-1       c-0.2-0.3-0.4-0.4-0.7-0.4c-0.3,0-0.6,0.1-0.7,0.4c-0.2,0.3-0.3,0.6-0.3,1c0,0.4,0.1,0.7,0.3,1c0.2,0.2,0.4,0.4,0.8,0.4       c0.3,0,0.5-0.1,0.7-0.4C226.4,372.5,226.5,372.2,226.5,371.7z M226.3,367.8c0-0.4-0.1-0.6-0.2-0.9c-0.1-0.2-0.3-0.3-0.5-0.3       c-0.3,0-0.4,0.1-0.6,0.3c-0.1,0.2-0.2,0.5-0.2,0.9c0,0.4,0.1,0.7,0.2,0.9c0.1,0.2,0.3,0.3,0.6,0.3c0.2,0,0.4-0.1,0.5-0.3       C226.2,368.5,226.3,368.2,226.3,367.8z" id="XMLID_5088_"/></g><g id="XMLID_5076_"><g id="XMLID_5084_"><rect class="st10" height="17.2" id="XMLID_5086_" width="25.4" x="213.2" y="388.1"/><rect class="st13" height="17.2" id="XMLID_5085_" width="25.4" x="212.5" y="387.4"/></g><g id="XMLID_5077_"><path class="st14" d="M224.5,397.7c0,1-0.2,1.8-0.7,2.4c-0.5,0.6-1.1,0.9-2,0.9s-1.5-0.3-2-0.9        c-0.5-0.6-0.7-1.4-0.7-2.4v-2.6c0-1,0.2-1.8,0.7-2.4c0.5-0.6,1.1-0.9,2-0.9c0.8,0,1.5,0.3,2,0.9c0.5,0.6,0.7,1.4,0.7,2.4        V397.7z M222.8,395c0-0.6-0.1-1-0.3-1.4c-0.2-0.3-0.4-0.5-0.7-0.5c-0.3,0-0.5,0.2-0.7,0.5c-0.2,0.3-0.2,0.8-0.2,1.4v2.7        c0,0.6,0.1,1.1,0.2,1.4c0.2,0.3,0.4,0.5,0.7,0.5c0.3,0,0.5-0.2,0.7-0.5c0.2-0.3,0.2-0.8,0.2-1.4V395z" id="XMLID_5081_"/><path class="st14" d="M231.9,397.7c0,1-0.2,1.8-0.7,2.4c-0.5,0.6-1.1,0.9-2,0.9s-1.5-0.3-2-0.9        c-0.5-0.6-0.7-1.4-0.7-2.4v-2.6c0-1,0.2-1.8,0.7-2.4c0.5-0.6,1.1-0.9,2-0.9c0.8,0,1.5,0.3,2,0.9c0.5,0.6,0.7,1.4,0.7,2.4        V397.7z M230.2,395c0-0.6-0.1-1-0.3-1.4c-0.2-0.3-0.4-0.5-0.7-0.5c-0.3,0-0.5,0.2-0.7,0.5c-0.2,0.3-0.2,0.8-0.2,1.4v2.7        c0,0.6,0.1,1.1,0.2,1.4c0.2,0.3,0.4,0.5,0.7,0.5c0.3,0,0.5-0.2,0.7-0.5c0.2-0.3,0.2-0.8,0.2-1.4V395z" id="XMLID_5078_"/></g></g><g id="XMLID_5070_"><g id="XMLID_5073_"><rect class="st10" height="17.2" id="XMLID_5075_" width="25.4" x="213.2" y="308.5"/><rect class="st13" height="17.2" id="XMLID_5074_" width="25.4" x="212.5" y="307.8"/></g><path class="st14" d="M228.2,321.3h-5.4v-1.4l2.7-3c0.4-0.5,0.6-0.8,0.7-1.1c0.1-0.3,0.1-0.6,0.1-1       c0-0.4-0.1-0.7-0.2-0.9c-0.1-0.2-0.3-0.3-0.7-0.3c-0.3,0-0.5,0.1-0.7,0.4c-0.2,0.3-0.2,0.6-0.2,1h-1.7l0,0c0-0.8,0.2-1.4,0.7-2       c0.5-0.5,1.1-0.8,1.9-0.8c0.8,0,1.5,0.2,1.9,0.7c0.5,0.5,0.7,1.1,0.7,2c0,0.6-0.1,1.1-0.4,1.6c-0.3,0.5-0.7,1-1.3,1.7l-1.2,1.7       h3.2V321.3z" id="XMLID_5071_"/></g><g id="XMLID_5066_"><g id="XMLID_5067_"><rect class="st10" height="17.2" id="XMLID_5069_" width="25.4" x="213.2" y="283"/><rect class="st13" height="17.2" id="XMLID_5068_" width="25.4" x="212.5" y="282.3"/></g></g><g id="XMLID_5062_"><g id="XMLID_5063_"><rect class="st10" height="17.2" id="XMLID_5065_" width="25.4" x="213.2" y="257.5"/><rect class="st13" height="17.2" id="XMLID_5064_" width="25.4" x="212.5" y="256.8"/></g></g><g id="XMLID_5054_"><path class="st14" d="M223,265.3h-1.7v1.6h2v0.8h-3.1v-5.4h3.1v0.8h-2v1.4h1.7V265.3z" id="XMLID_5060_"/><path class="st14" d="M225.4,264.9L225.4,264.9l0.5-1.3h1.2l-1,2l1.1,2H226l-0.5-1.3h0l-0.5,1.3h-1.2l1.1-2       l-1-2h1.2L225.4,264.9z" id="XMLID_5058_"/><path class="st14" d="M230.8,265.8c0,0.6-0.1,1.1-0.4,1.5c-0.2,0.4-0.6,0.5-1,0.5c-0.2,0-0.3,0-0.5-0.1       c-0.1-0.1-0.3-0.2-0.3-0.3v1.9h-1.1v-5.6h1l0,0.4c0.1-0.2,0.2-0.3,0.4-0.4c0.1-0.1,0.3-0.1,0.5-0.1c0.4,0,0.8,0.2,1,0.6       C230.7,264.5,230.8,265.1,230.8,265.8L230.8,265.8z M229.7,265.7c0-0.4,0-0.7-0.1-0.9c-0.1-0.2-0.2-0.4-0.5-0.4       c-0.1,0-0.2,0-0.3,0.1c-0.1,0.1-0.2,0.1-0.2,0.3v1.9c0.1,0.1,0.1,0.2,0.2,0.2c0.1,0,0.2,0.1,0.3,0.1c0.2,0,0.4-0.1,0.4-0.3       C229.7,266.4,229.7,266.1,229.7,265.7L229.7,265.7z" id="XMLID_5055_"/></g><g id="XMLID_5045_"><path class="st14" d="M221.7,293.6h-1.2v-6.8h1.2V293.6z" id="XMLID_5052_"/><path class="st14" d="M222.4,291.2c0-0.7,0.2-1.3,0.5-1.7c0.3-0.4,0.8-0.7,1.5-0.7c0.6,0,1.1,0.2,1.5,0.7       c0.3,0.4,0.5,1,0.5,1.7v0.1c0,0.7-0.2,1.3-0.5,1.7c-0.3,0.4-0.8,0.7-1.4,0.7c-0.6,0-1.1-0.2-1.5-0.7       C222.6,292.6,222.4,292.1,222.4,291.2L222.4,291.2z M223.6,291.3c0,0.4,0.1,0.8,0.2,1c0.1,0.3,0.3,0.4,0.6,0.4       c0.3,0,0.4-0.1,0.5-0.4c0.1-0.3,0.2-0.6,0.2-1v-0.1c0-0.4-0.1-0.8-0.2-1c-0.1-0.3-0.3-0.4-0.6-0.4c-0.3,0-0.4,0.1-0.6,0.4       C223.7,290.5,223.6,290.8,223.6,291.3L223.6,291.3z" id="XMLID_5049_"/><path class="st14" d="M226.8,291.3c0-0.7,0.1-1.3,0.4-1.8c0.3-0.5,0.7-0.7,1.2-0.7c0.2,0,0.4,0.1,0.6,0.2       c0.2,0.1,0.3,0.3,0.4,0.5l0.1-0.5h1.1v4.7c0,0.6-0.2,1.1-0.5,1.4c-0.4,0.3-0.9,0.5-1.5,0.5c-0.2,0-0.4,0-0.7-0.1       c-0.2-0.1-0.5-0.2-0.7-0.3l0.2-0.9c0.2,0.1,0.4,0.2,0.5,0.2c0.2,0,0.4,0.1,0.6,0.1c0.3,0,0.5-0.1,0.6-0.2s0.2-0.4,0.2-0.7v-0.3       c-0.1,0.2-0.3,0.3-0.4,0.4c-0.2,0.1-0.3,0.1-0.5,0.1c-0.5,0-0.9-0.2-1.2-0.6C227,292.7,226.8,292.1,226.8,291.3L226.8,291.3z        M228.1,291.4c0,0.4,0.1,0.8,0.2,1c0.1,0.2,0.3,0.4,0.5,0.4c0.1,0,0.3,0,0.4-0.1c0.1-0.1,0.2-0.1,0.3-0.3v-2.2       c-0.1-0.1-0.2-0.2-0.3-0.3c-0.1-0.1-0.2-0.1-0.4-0.1c-0.2,0-0.4,0.1-0.5,0.4S228.1,290.9,228.1,291.4L228.1,291.4z" id="XMLID_5046_"/></g></g><g id="XMLID_4987_"><g id="XMLID_5041_"><polygon class="st8" id="XMLID_5043_" points="360.3,405.3 334.9,405.3 335.2,362.2 360.6,362.2      "/><polygon class="st12" id="XMLID_5042_" points="359.6,404.7 334.2,404.7 334.6,361.6 359.9,361.6      "/></g><g id="XMLID_5038_"><rect class="st11" height="17.2" id="XMLID_5040_" width="25.4" x="335" y="335"/><rect class="st12" height="17.2" id="XMLID_5039_" width="25.4" x="334.4" y="334.4"/></g><g id="XMLID_5035_"><rect class="st11" height="17.2" id="XMLID_5037_" width="25.4" x="335" y="308.5"/><rect class="st12" height="17.2" id="XMLID_5036_" width="25.4" x="334.4" y="307.8"/></g><g id="XMLID_5032_"><rect class="st11" height="17.2" id="XMLID_5034_" width="25.4" x="335" y="283"/><rect class="st12" height="17.2" id="XMLID_5033_" width="25.4" x="334.4" y="282.3"/></g><g id="XMLID_5029_"><rect class="st11" height="17.2" id="XMLID_5031_" width="25.4" x="335" y="257.5"/><rect class="st12" height="17.2" id="XMLID_5030_" width="25.4" x="334.4" y="256.8"/></g><g id="XMLID_5021_"><g id="XMLID_5026_"><rect class="st10" height="0.8" id="XMLID_5028_" transform="matrix(0.7071 0.7071 -0.7071 0.7071 289.6649 -167.8236)" width="5" x="344.9" y="265.3"/><rect class="st10" height="0.8" id="XMLID_5027_" transform="matrix(-0.7071 0.7071 -0.7071 -0.7071 780.9818 207.9962)" width="5" x="344.9" y="265.3"/></g><g id="XMLID_5022_"><path class="st10" d="M354.5,270.5h-14.1V261h14.1V270.5z M340.9,270h13.1v-8.5h-13.1V270z" id="XMLID_5023_"/></g></g><g id="XMLID_5013_"><path class="st10" d="M343.3,318.3c0.2,0,0.3-0.1,0.4-0.2c0.1-0.1,0.1-0.3,0.1-0.5h1.1l0,0       c0,0.5-0.1,0.9-0.5,1.2c-0.3,0.3-0.7,0.5-1.2,0.5c-0.6,0-1.1-0.2-1.4-0.7c-0.3-0.4-0.5-1-0.5-1.7v-0.1c0-0.7,0.2-1.3,0.5-1.7       c0.3-0.4,0.8-0.7,1.4-0.7c0.5,0,0.9,0.2,1.2,0.5c0.3,0.3,0.5,0.8,0.5,1.3l0,0h-1.1c0-0.3,0-0.5-0.1-0.6       c-0.1-0.2-0.2-0.2-0.4-0.2c-0.3,0-0.4,0.1-0.5,0.4c-0.1,0.3-0.2,0.6-0.2,1v0.1c0,0.4,0.1,0.8,0.2,1       C342.9,318.1,343.1,318.3,343.3,318.3z" id="XMLID_5019_"/><path class="st10" d="M345.5,316.7c0-0.7,0.2-1.3,0.5-1.7c0.3-0.4,0.8-0.7,1.5-0.7s1.1,0.2,1.5,0.7       c0.3,0.4,0.5,1,0.5,1.7v0.1c0,0.7-0.2,1.3-0.5,1.7c-0.3,0.4-0.8,0.7-1.4,0.7c-0.6,0-1.1-0.2-1.5-0.7       C345.7,318.1,345.5,317.5,345.5,316.7L345.5,316.7z M346.7,316.8c0,0.4,0.1,0.8,0.2,1c0.1,0.3,0.3,0.4,0.6,0.4       c0.3,0,0.4-0.1,0.5-0.4c0.1-0.3,0.2-0.6,0.2-1v-0.1c0-0.4-0.1-0.8-0.2-1c-0.1-0.3-0.3-0.4-0.6-0.4s-0.4,0.1-0.6,0.4       C346.8,316,346.7,316.3,346.7,316.8L346.7,316.8z" id="XMLID_5016_"/><path class="st10" d="M352.2,317.9c0-0.1-0.1-0.3-0.2-0.4c-0.1-0.1-0.3-0.2-0.6-0.4c-0.5-0.2-0.9-0.4-1.1-0.6       c-0.2-0.2-0.4-0.5-0.4-0.9c0-0.4,0.2-0.7,0.5-1c0.3-0.3,0.7-0.4,1.2-0.4c0.5,0,1,0.1,1.3,0.4c0.3,0.3,0.5,0.6,0.5,1.1l0,0h-1.2       c0-0.2,0-0.4-0.1-0.5c-0.1-0.1-0.2-0.2-0.4-0.2c-0.1,0-0.3,0-0.4,0.1c-0.1,0.1-0.2,0.2-0.2,0.3c0,0.1,0.1,0.3,0.2,0.3       c0.1,0.1,0.3,0.2,0.6,0.4c0.5,0.2,0.9,0.4,1.1,0.6c0.2,0.2,0.4,0.5,0.4,0.9c0,0.4-0.2,0.7-0.5,1c-0.3,0.3-0.8,0.4-1.3,0.4       c-0.6,0-1-0.2-1.3-0.5c-0.3-0.3-0.5-0.7-0.5-1.1l0,0h1.1c0,0.3,0.1,0.4,0.2,0.5s0.3,0.2,0.5,0.2c0.2,0,0.3,0,0.4-0.1       C352.2,318.2,352.2,318,352.2,317.9z" id="XMLID_5014_"/></g><g id="XMLID_5005_"><path class="st10" d="M343.6,340.3v1.2h0.8v0.9h-0.8v2.3c0,0.2,0,0.4,0.1,0.5c0.1,0.1,0.2,0.1,0.3,0.1       c0.1,0,0.1,0,0.2,0c0,0,0.1,0,0.2,0l0.1,0.9c-0.1,0-0.2,0.1-0.4,0.1c-0.1,0-0.2,0-0.4,0c-0.4,0-0.8-0.1-1-0.4       c-0.2-0.3-0.4-0.7-0.4-1.2v-2.3h-0.5v-0.9h0.5v-1.2H343.6z" id="XMLID_5011_"/><path class="st10" d="M347.4,346.2c0-0.1-0.1-0.2-0.1-0.3c0-0.1,0-0.2-0.1-0.4c-0.1,0.2-0.2,0.4-0.4,0.6       c-0.2,0.1-0.4,0.2-0.6,0.2c-0.4,0-0.8-0.1-1-0.4c-0.2-0.3-0.4-0.6-0.4-1c0-0.5,0.2-0.8,0.5-1.1c0.3-0.3,0.8-0.4,1.4-0.4h0.5       V343c0-0.2,0-0.4-0.1-0.5c-0.1-0.1-0.2-0.2-0.4-0.2c-0.2,0-0.3,0.1-0.3,0.2c-0.1,0.1-0.1,0.2-0.1,0.4h-1.2l0,0       c0-0.4,0.1-0.7,0.5-1c0.3-0.3,0.8-0.4,1.3-0.4c0.5,0,0.9,0.1,1.2,0.4c0.3,0.3,0.5,0.7,0.5,1.2v1.9c0,0.2,0,0.4,0,0.6       c0,0.2,0.1,0.4,0.1,0.6H347.4z M346.6,345.4c0.2,0,0.3,0,0.4-0.1c0.1-0.1,0.2-0.2,0.3-0.4v-0.7h-0.5c-0.2,0-0.4,0.1-0.5,0.2       c-0.1,0.1-0.1,0.3-0.1,0.5c0,0.2,0,0.3,0.1,0.4C346.3,345.3,346.4,345.4,346.6,345.4z" id="XMLID_5008_"/><path class="st10" d="M350.4,341.5l0.1,0.7c0.1-0.2,0.3-0.4,0.5-0.6c0.2-0.1,0.4-0.2,0.7-0.2       c0.4,0,0.7,0.2,1,0.5c0.2,0.3,0.4,0.8,0.4,1.5v2.9h-1.3v-2.9c0-0.4,0-0.6-0.1-0.8c-0.1-0.1-0.2-0.2-0.4-0.2       c-0.1,0-0.3,0-0.4,0.1c-0.1,0.1-0.2,0.2-0.3,0.3v3.5h-1.2v-4.7H350.4z" id="XMLID_5006_"/></g><g id="XMLID_4997_"><path class="st10" d="M344.8,293.4c0-0.1-0.1-0.3-0.2-0.4c-0.1-0.1-0.3-0.2-0.6-0.4c-0.5-0.2-0.9-0.4-1.1-0.6       c-0.2-0.2-0.4-0.5-0.4-0.9c0-0.4,0.2-0.7,0.5-1c0.3-0.3,0.7-0.4,1.2-0.4c0.5,0,1,0.1,1.3,0.4c0.3,0.3,0.5,0.6,0.5,1.1l0,0h-1.2       c0-0.2,0-0.4-0.1-0.5c-0.1-0.1-0.2-0.2-0.4-0.2c-0.1,0-0.3,0-0.4,0.1c-0.1,0.1-0.2,0.2-0.2,0.3c0,0.1,0.1,0.3,0.2,0.3       c0.1,0.1,0.3,0.2,0.6,0.4c0.5,0.2,0.9,0.4,1.1,0.6c0.2,0.2,0.4,0.5,0.4,0.9c0,0.4-0.2,0.7-0.5,1c-0.3,0.3-0.8,0.4-1.3,0.4       c-0.6,0-1-0.2-1.3-0.5s-0.5-0.7-0.5-1.1l0,0h1.1c0,0.3,0.1,0.4,0.2,0.5c0.1,0.1,0.3,0.2,0.5,0.2c0.2,0,0.3,0,0.4-0.1       C344.7,293.6,344.8,293.5,344.8,293.4z" id="XMLID_5003_"/><path class="st10" d="M347.9,288.8h-1.2v-0.9h1.2V288.8z M347.9,294.6h-1.2v-4.7h1.2V294.6z" id="XMLID_5000_"/><path class="st10" d="M349.9,289.9l0.1,0.7c0.1-0.2,0.3-0.4,0.5-0.6c0.2-0.1,0.4-0.2,0.7-0.2       c0.4,0,0.7,0.2,1,0.5s0.4,0.8,0.4,1.5v2.9h-1.3v-2.9c0-0.4,0-0.6-0.1-0.8c-0.1-0.1-0.2-0.2-0.4-0.2c-0.1,0-0.3,0-0.4,0.1       c-0.1,0.1-0.2,0.2-0.3,0.3v3.5h-1.2v-4.7H349.9z" id="XMLID_4998_"/></g><g id="XMLID_4988_"><path class="st10" d="M352,379.6L352,379.6l0.5-1.4h1.3l-1.1,2.1l1.1,2.2h-1.3l-0.5-1.4h0l-0.5,1.4h-1.3       l1.1-2.2l-1.1-2.1h1.3L352,379.6z" id="XMLID_4995_"/><g id="XMLID_4989_"><path class="st10" d="M343.5,388.6h-1.4v-5.9l-1.1,0v-1.1l2.5-0.3V388.6z" id="XMLID_4993_"/><path class="st10" d="M349.1,386.1c0,0.8-0.2,1.4-0.6,1.9c-0.4,0.5-0.9,0.7-1.5,0.7c-0.6,0-1.2-0.2-1.5-0.7        s-0.6-1.1-0.6-1.9V384c0-0.8,0.2-1.4,0.6-1.9c0.4-0.5,0.9-0.7,1.5-0.7c0.6,0,1.2,0.2,1.5,0.7s0.6,1.1,0.6,1.9V386.1z         M347.7,384c0-0.5-0.1-0.8-0.2-1.1c-0.1-0.3-0.3-0.4-0.5-0.4c-0.2,0-0.4,0.1-0.5,0.4c-0.1,0.3-0.2,0.6-0.2,1.1v2.2        c0,0.5,0.1,0.8,0.2,1.1c0.1,0.3,0.3,0.4,0.5,0.4c0.2,0,0.4-0.1,0.5-0.4c0.1-0.3,0.2-0.6,0.2-1.1V384z" id="XMLID_4990_"/></g></g></g><g id="XMLID_4938_"><g id="XMLID_4980_"><g id="XMLID_4984_"><rect class="st10" height="17.2" id="XMLID_4986_" width="25.4" x="243.6" y="335"/><rect class="st13" height="17.2" id="XMLID_4985_" width="25.4" x="243" y="334.4"/></g><path class="st14" d="M256.3,338.7c0.3,0,0.6,0,0.8,0.1c0.3,0.1,0.5,0.2,0.8,0.3l-0.3,1.3       c-0.2-0.1-0.5-0.2-0.6-0.2c-0.2,0-0.4-0.1-0.7-0.1c-0.4,0-0.7,0.2-0.9,0.5c-0.2,0.3-0.4,0.8-0.4,1.4v0.6       c0.2-0.2,0.4-0.4,0.6-0.5c0.2-0.1,0.5-0.2,0.8-0.2c0.7,0,1.3,0.3,1.7,0.8c0.4,0.5,0.6,1.2,0.6,2.2c0,0.9-0.3,1.6-0.8,2.2       c-0.5,0.6-1.2,0.8-2,0.8c-0.8,0-1.5-0.3-2-0.9c-0.5-0.6-0.8-1.4-0.8-2.3V342c0-1,0.3-1.8,0.9-2.4       C254.7,339,255.4,338.7,256.3,338.7z M256,343.3c-0.2,0-0.4,0-0.6,0.1c-0.2,0.1-0.3,0.2-0.4,0.3v0.9c0,0.6,0.1,1,0.3,1.4       c0.2,0.3,0.4,0.5,0.7,0.5c0.3,0,0.6-0.2,0.7-0.5c0.2-0.3,0.3-0.7,0.3-1.2c0-0.5-0.1-0.9-0.2-1.2       C256.6,343.5,256.4,343.3,256,343.3z" id="XMLID_4981_"/></g><g id="XMLID_4973_"><g id="XMLID_4977_"><rect class="st10" height="17.2" id="XMLID_4979_" width="25.4" x="243.6" y="361.6"/><rect class="st13" height="17.2" id="XMLID_4978_" width="25.4" x="243" y="360.9"/></g><path class="st14" d="M255.8,373.1c0.3,0,0.6-0.1,0.8-0.4c0.2-0.3,0.3-0.7,0.3-1.2v-0.8       c-0.2,0.2-0.4,0.4-0.6,0.6c-0.2,0.1-0.5,0.2-0.7,0.2c-0.7,0-1.3-0.3-1.7-0.8c-0.4-0.5-0.6-1.3-0.6-2.2c0-0.9,0.3-1.6,0.8-2.2       c0.5-0.6,1.1-0.9,1.9-0.9c0.8,0,1.4,0.3,2,0.8c0.5,0.6,0.8,1.3,0.8,2.3v3c0,0.9-0.3,1.7-0.8,2.2c-0.6,0.5-1.3,0.8-2.1,0.8       c-0.3,0-0.6,0-0.8-0.1c-0.3-0.1-0.6-0.2-0.8-0.3l0.3-1.3c0.2,0.1,0.4,0.2,0.7,0.2C255.3,373.1,255.5,373.1,255.8,373.1z        M255.9,370.1c0.2,0,0.4-0.1,0.6-0.2c0.2-0.1,0.3-0.3,0.4-0.4v-1.1c0-0.5-0.1-1-0.3-1.3c-0.2-0.3-0.4-0.4-0.7-0.4       c-0.3,0-0.5,0.2-0.7,0.5c-0.2,0.3-0.3,0.8-0.3,1.2c0,0.5,0.1,0.9,0.2,1.2C255.4,369.9,255.6,370.1,255.9,370.1z" id="XMLID_4974_"/></g><g id="XMLID_4968_"><g id="XMLID_4970_"><rect class="st10" height="17.2" id="XMLID_4972_" width="25.4" x="243.6" y="388.1"/><rect class="st13" height="17.2" id="XMLID_4971_" width="25.4" x="243" y="387.4"/></g><circle class="st14" cx="256" cy="396.4" id="XMLID_4969_" r="2.1"/></g><g id="XMLID_4962_"><g id="XMLID_4965_"><rect class="st10" height="17.2" id="XMLID_4967_" width="25.4" x="243.6" y="308.5"/><rect class="st13" height="17.2" id="XMLID_4966_" width="25.4" x="243" y="307.8"/></g><path class="st14" d="M256,316c0.3,0,0.5-0.1,0.6-0.3c0.1-0.2,0.2-0.5,0.2-0.9c0-0.3-0.1-0.6-0.2-0.9       c-0.2-0.2-0.4-0.3-0.7-0.3c-0.2,0-0.4,0.1-0.6,0.3c-0.2,0.2-0.2,0.5-0.2,0.8h-1.7l0,0c0-0.7,0.2-1.3,0.7-1.7s1.1-0.7,1.8-0.7       c0.8,0,1.5,0.2,2,0.7c0.5,0.4,0.7,1.1,0.7,1.9c0,0.4-0.1,0.8-0.3,1.1c-0.2,0.3-0.5,0.6-0.8,0.8c0.4,0.2,0.7,0.4,0.9,0.8       c0.2,0.4,0.3,0.8,0.3,1.3c0,0.8-0.3,1.5-0.8,1.9c-0.5,0.5-1.2,0.7-2,0.7c-0.7,0-1.4-0.2-1.9-0.7c-0.5-0.4-0.8-1.1-0.8-1.9l0,0       h1.7c0,0.4,0.1,0.7,0.2,0.9c0.2,0.2,0.4,0.4,0.7,0.4c0.3,0,0.6-0.1,0.8-0.4c0.2-0.2,0.3-0.5,0.3-0.9c0-0.5-0.1-0.8-0.2-1.1       c-0.2-0.2-0.4-0.3-0.7-0.3h-1V316H256z" id="XMLID_4963_"/></g><g id="XMLID_4958_"><g id="XMLID_4959_"><rect class="st10" height="17.2" id="XMLID_4961_" width="25.4" x="243.6" y="283"/><rect class="st13" height="17.2" id="XMLID_4960_" width="25.4" x="243" y="282.3"/></g></g><g id="XMLID_4954_"><g id="XMLID_4955_"><rect class="st10" height="17.2" id="XMLID_4957_" width="25.4" x="243.6" y="257.5"/><rect class="st13" height="17.2" id="XMLID_4956_" width="25.4" x="243" y="256.8"/></g></g><g id="XMLID_4947_"><path class="st14" d="M253.3,266.3H251v2.9h-1.4v-7h4.1v1.1H251v1.9h2.3V266.3z" id="XMLID_4952_"/><path class="st14" d="M257.1,266.4h-2.5v-1.1h2.5V266.4z" id="XMLID_4950_"/><path class="st14" d="M261.9,266.2h-2.2v2h2.6v1.1h-4v-7h4v1.1h-2.6v1.8h2.2V266.2z" id="XMLID_4948_"/></g><g id="XMLID_4939_"><path class="st14" d="M248.6,292.3c0-0.7,0.1-1.3,0.4-1.8c0.3-0.5,0.7-0.7,1.2-0.7c0.2,0,0.4,0,0.5,0.1       c0.2,0.1,0.3,0.2,0.4,0.4v-2.5h1.2v6.8h-1.1l-0.1-0.5c-0.1,0.2-0.3,0.4-0.4,0.5c-0.2,0.1-0.4,0.2-0.6,0.2       c-0.5,0-0.9-0.2-1.2-0.6C248.7,293.6,248.6,293.1,248.6,292.3L248.6,292.3z M249.8,292.4c0,0.4,0.1,0.8,0.2,1       c0.1,0.2,0.3,0.4,0.5,0.4c0.1,0,0.3,0,0.4-0.1c0.1-0.1,0.2-0.2,0.3-0.3v-2.2c-0.1-0.1-0.2-0.2-0.3-0.3       c-0.1-0.1-0.2-0.1-0.3-0.1c-0.2,0-0.4,0.1-0.5,0.4C249.9,291.5,249.8,291.8,249.8,292.4L249.8,292.4z" id="XMLID_4944_"/><path class="st14" d="M254.3,289.9l0.1,0.6c0.1-0.2,0.3-0.4,0.5-0.5c0.2-0.1,0.4-0.2,0.7-0.2       c0.3,0,0.5,0.1,0.7,0.2c0.2,0.1,0.3,0.3,0.4,0.6c0.1-0.2,0.3-0.4,0.5-0.6c0.2-0.1,0.5-0.2,0.7-0.2c0.4,0,0.7,0.2,1,0.5       c0.2,0.3,0.4,0.8,0.4,1.5v2.8H258v-2.8c0-0.4,0-0.7-0.1-0.8s-0.2-0.2-0.4-0.2c-0.1,0-0.3,0-0.4,0.1c-0.1,0.1-0.2,0.2-0.3,0.3       c0,0.1,0,0.1,0,0.2c0,0.1,0,0.1,0,0.2v3.1h-1.2v-2.8c0-0.4,0-0.7-0.1-0.8c-0.1-0.2-0.2-0.2-0.4-0.2c-0.1,0-0.3,0-0.4,0.1       c-0.1,0.1-0.2,0.2-0.3,0.3v3.5h-1.2v-4.7H254.3z" id="XMLID_4942_"/><path class="st14" d="M262.2,293.4c0-0.1-0.1-0.3-0.2-0.4c-0.1-0.1-0.3-0.2-0.6-0.4c-0.5-0.2-0.9-0.4-1.1-0.6       c-0.2-0.2-0.4-0.5-0.4-0.9c0-0.4,0.2-0.7,0.5-1c0.3-0.3,0.7-0.4,1.2-0.4c0.5,0,1,0.1,1.3,0.4c0.3,0.3,0.5,0.6,0.5,1.1l0,0h-1.2       c0-0.2,0-0.4-0.1-0.5c-0.1-0.1-0.2-0.2-0.4-0.2c-0.1,0-0.3,0-0.4,0.1c-0.1,0.1-0.2,0.2-0.2,0.3c0,0.1,0.1,0.3,0.2,0.3       c0.1,0.1,0.3,0.2,0.6,0.4c0.5,0.2,0.9,0.4,1.1,0.6c0.2,0.2,0.4,0.5,0.4,0.9c0,0.4-0.2,0.7-0.5,1c-0.3,0.3-0.8,0.4-1.3,0.4       c-0.6,0-1-0.2-1.3-0.5s-0.5-0.7-0.5-1.1l0,0h1.1c0,0.3,0.1,0.4,0.2,0.5s0.3,0.2,0.5,0.2c0.2,0,0.3,0,0.4-0.1       C262.2,293.6,262.2,293.5,262.2,293.4z" id="XMLID_4940_"/></g></g></g><g id="XMLID_4467_"><g id="XMLID_4927_"><g id="XMLID_4934_"><rect class="st8" height="17.2" id="XMLID_4936_" width="46.4" x="152.2" y="231.8"/><rect class="st9" height="17.2" id="XMLID_4935_" width="46.4" x="151.5" y="231.1"/></g><g id="XMLID_4928_"><path class="st15" d="M168.4,240c0-1,0.3-1.8,0.8-2.5c0.6-0.6,1.3-1,2.3-1c1,0,1.8,0.3,2.3,1       c0.6,0.6,0.8,1.5,0.8,2.5v0.1c0,1-0.3,1.8-0.8,2.5c-0.6,0.6-1.3,1-2.3,1c-1,0-1.8-0.3-2.3-1c-0.6-0.6-0.8-1.5-0.8-2.5V240z        M170.2,240.1c0,0.6,0.1,1.1,0.3,1.5c0.2,0.4,0.6,0.6,1,0.6c0.5,0,0.8-0.2,1-0.6c0.2-0.4,0.3-0.9,0.3-1.5V240       c0-0.6-0.1-1.1-0.3-1.5c-0.2-0.4-0.6-0.6-1-0.6c-0.5,0-0.8,0.2-1,0.6c-0.2,0.4-0.3,0.9-0.3,1.5V240.1z" id="XMLID_4931_"/><path class="st15" d="M177.5,236.7l0.1,1c0.2-0.3,0.5-0.6,0.8-0.8c0.3-0.2,0.7-0.3,1.1-0.3       c0.7,0,1.2,0.2,1.6,0.7c0.4,0.4,0.6,1.1,0.6,2.1v4.1h-1.8v-4.1c0-0.5-0.1-0.8-0.3-1c-0.2-0.2-0.4-0.3-0.8-0.3       c-0.3,0-0.5,0.1-0.7,0.2c-0.2,0.1-0.4,0.2-0.5,0.4v4.9h-1.8v-6.7H177.5z" id="XMLID_4929_"/></g></g><g id="XMLID_4468_"><g id="XMLID_4924_"><rect class="st8" height="17.2" id="XMLID_4926_" width="46.4" x="314.1" y="231.8"/><rect class="st9" height="17.2" id="XMLID_4925_" width="46.4" x="313.5" y="231.1"/></g><g id="XMLID_4469_"><path class="st15" d="M330.3,241.3c0-0.8,0.2-1.5,0.7-2.1c0.5-0.5,1.1-0.8,2-0.8c0.8,0,1.5,0.3,2,0.8       c0.5,0.5,0.7,1.2,0.7,2.1v0.1c0,0.9-0.2,1.5-0.7,2.1c-0.5,0.5-1.1,0.8-2,0.8c-0.8,0-1.5-0.3-2-0.8c-0.5-0.5-0.7-1.2-0.7-2.1       V241.3z M331.9,241.4c0,0.5,0.1,0.9,0.3,1.2c0.2,0.3,0.5,0.5,0.9,0.5c0.4,0,0.7-0.2,0.9-0.5s0.3-0.7,0.3-1.2v-0.1       c0-0.5-0.1-0.9-0.3-1.2c-0.2-0.3-0.5-0.5-0.9-0.5c-0.4,0-0.7,0.2-0.9,0.5c-0.2,0.3-0.3,0.7-0.3,1.2V241.4z" id="XMLID_4921_"/><path class="st15" d="M337,244.1v-4.6h-0.8v-1.1h0.8v-0.6c0-0.6,0.2-1.1,0.5-1.5s0.9-0.5,1.5-0.5       c0.1,0,0.3,0,0.4,0c0.1,0,0.3,0,0.4,0.1l-0.1,1.1c-0.1,0-0.2,0-0.2,0c-0.1,0-0.2,0-0.3,0c-0.2,0-0.4,0.1-0.6,0.2       s-0.2,0.3-0.2,0.6v0.6h1.1v1.1h-1.1v4.6H337z" id="XMLID_4472_"/><path class="st15" d="M340.7,244.1v-4.6h-0.8v-1.1h0.8v-0.6c0-0.6,0.2-1.1,0.5-1.5c0.4-0.3,0.9-0.5,1.5-0.5       c0.1,0,0.3,0,0.4,0c0.1,0,0.3,0,0.4,0.1l-0.1,1.1c-0.1,0-0.2,0-0.2,0c-0.1,0-0.2,0-0.3,0c-0.2,0-0.4,0.1-0.6,0.2       c-0.1,0.1-0.2,0.3-0.2,0.6v0.6h1.1v1.1h-1.1v4.6H340.7z" id="XMLID_4470_"/></g></g></g><g id="XMLID_4463_"><path class="st4" d="M361.5,406.4H150.5V255.7h210.9V406.4z M152.6,404.3h206.7V257.8H152.6V404.3z" id="XMLID_4464_"/></g><g id="XMLID_2321_"><path class="st4" d="M171.5,205.6h-0.2v-60.5h0.2v-5.6h-1.3c-2.5,0-4.5,2-4.5,4.5v62.7c0,2.5,2,4.5,4.5,4.5h1.3     V205.6z" id="XMLID_4462_"/><path class="st7" d="M341.8,139.6H170.2c-2.5,0-4.5,2-4.5,4.5v62.7c0,2.5,2,4.5,4.5,4.5h171.6     c2.5,0,4.5-2,4.5-4.5V144C346.3,141.6,344.3,139.6,341.8,139.6z M340.7,205.6H171.3v-60.5h169.3V205.6z" id="XMLID_4459_"/><path class="st4" d="M341.8,139.6h-2.5v5.6h1.4v60.5h-1.4v5.6h2.5c2.5,0,4.5-2,4.5-4.5V144     C346.3,141.6,344.3,139.6,341.8,139.6z" id="XMLID_4458_"/><rect class="st16" height="60.5" id="XMLID_4457_" width="169.3" x="171.3" y="145.2"/><g id="XMLID_2437_"><path class="st15" d="M226.8,179h2.5v3.5h-2.5v4.8h-4.5v-4.8h-9.1l-0.2-2.7l9.3-14.8h4.5V179z M217.1,179h5.2      v-8.1l-0.1,0l-0.5,1L217.1,179z" id="XMLID_3372_"/><path class="st15" d="M232.6,177.4l1.3-12.5h12.5v3.6h-8.8l-0.6,5.2c0.4-0.3,0.9-0.6,1.6-0.8      c0.6-0.2,1.3-0.3,2.1-0.3c2.2,0,3.8,0.6,5,1.9c1.2,1.3,1.8,3.2,1.8,5.5c0,2.2-0.6,4-1.9,5.4c-1.3,1.4-3.2,2.1-5.9,2.1      c-2.1,0-3.8-0.5-5.3-1.6c-1.5-1.1-2.2-2.6-2.1-4.5l0-0.1l4.3-0.2c0,0.9,0.3,1.7,0.8,2.2c0.6,0.5,1.3,0.8,2.2,0.8      c1.1,0,2-0.3,2.5-1c0.5-0.7,0.8-1.7,0.8-3c0-1.3-0.3-2.3-0.9-3.1c-0.6-0.8-1.4-1.1-2.5-1.1c-0.9,0-1.5,0.2-2,0.5      c-0.5,0.3-0.8,0.7-1,1.3L232.6,177.4z" id="XMLID_2658_"/><path class="st15" d="M258.7,164.6c0.9,0,1.7,0.1,2.4,0.2c0.7,0.2,1.5,0.4,2.2,0.7l-0.8,3.3      c-0.7-0.2-1.3-0.4-1.9-0.5c-0.6-0.1-1.2-0.2-1.9-0.2c-1.3,0-2.4,0.5-3.2,1.5c-0.8,1-1.2,2.4-1.2,4.2v0.8      c0.6-0.6,1.3-1.1,2.2-1.4c0.8-0.3,1.8-0.5,2.8-0.5c1.9,0,3.4,0.7,4.5,2c1.1,1.4,1.6,3.1,1.6,5.3c0,2.2-0.7,4.1-2.1,5.5      c-1.4,1.4-3.2,2.1-5.4,2.1c-2.3,0-4.2-0.8-5.7-2.4c-1.5-1.6-2.2-3.8-2.2-6.5V174c0-2.8,0.8-5.1,2.5-6.8      C254.1,165.5,256.2,164.6,258.7,164.6z M257.8,176.1c-0.8,0-1.5,0.1-2.1,0.4c-0.6,0.3-1,0.6-1.4,1.1v1.2c0,1.7,0.3,3,1,4      c0.6,0.9,1.5,1.4,2.5,1.4c0.9,0,1.7-0.4,2.2-1.2c0.6-0.8,0.8-1.8,0.8-3c0-1.2-0.3-2.2-0.8-2.9      C259.5,176.4,258.7,176.1,257.8,176.1z" id="XMLID_2655_"/><path class="st15" d="M277.7,179.4h-9V176h9V179.4z" id="XMLID_2653_"/><path class="st15" d="M289,174.1c1.1,0,1.9-0.3,2.4-0.8c0.5-0.6,0.8-1.3,0.8-2.3c0-0.8-0.3-1.5-0.8-2.1      c-0.5-0.6-1.3-0.8-2.3-0.8c-0.8,0-1.5,0.3-2.1,0.8c-0.6,0.5-0.8,1.1-0.8,1.9h-4.3l0-0.1c-0.1-1.7,0.6-3.2,2-4.3      c1.4-1.1,3.2-1.7,5.2-1.7c2.3,0,4.1,0.5,5.5,1.6c1.4,1.1,2,2.6,2,4.7c0,1-0.3,2-0.9,2.8c-0.6,0.9-1.4,1.5-2.4,2      c1.2,0.4,2.1,1.1,2.7,2c0.6,0.9,1,2,1,3.2c0,2-0.7,3.7-2.2,4.8c-1.5,1.2-3.4,1.8-5.7,1.8c-2,0-3.8-0.6-5.3-1.7s-2.3-2.7-2.2-4.6      l0-0.1h4.4c0,0.8,0.3,1.5,0.9,2.1c0.6,0.6,1.3,0.9,2.3,0.9c1,0,1.8-0.3,2.5-0.9c0.6-0.6,1-1.4,1-2.3c0-1.2-0.3-2-0.9-2.6      c-0.6-0.6-1.5-0.9-2.6-0.9h-2.5v-3.4H289z" id="XMLID_2651_"/><path class="st15" d="M314.7,179.2c0,2.6-0.7,4.7-2.1,6.2c-1.4,1.5-3.2,2.2-5.5,2.2c-2.3,0-4.1-0.7-5.5-2.2      c-1.4-1.5-2.1-3.5-2.1-6.2V173c0-2.6,0.7-4.7,2.1-6.2c1.4-1.5,3.2-2.3,5.5-2.3c2.3,0,4.1,0.8,5.5,2.3c1.4,1.5,2.1,3.6,2.1,6.2      V179.2z M310.2,172.6c0-1.4-0.3-2.5-0.8-3.3c-0.5-0.8-1.3-1.2-2.3-1.2c-1,0-1.7,0.4-2.3,1.2c-0.5,0.8-0.8,1.9-0.8,3.3v7      c0,1.5,0.3,2.6,0.8,3.4c0.5,0.8,1.3,1.2,2.3,1.2c1,0,1.7-0.4,2.3-1.2c0.5-0.8,0.8-1.9,0.8-3.4V172.6z" id="XMLID_2628_"/><path class="st15" d="M332.9,187.3h-15v-2.9l6.9-7.8c1-1.2,1.8-2.2,2.2-3.1c0.4-0.8,0.7-1.6,0.7-2.3      c0-0.9-0.2-1.7-0.7-2.2c-0.5-0.6-1.1-0.8-2.1-0.8c-1,0-1.7,0.4-2.3,1.1c-0.5,0.7-0.8,1.6-0.8,2.7h-4.4l0-0.1c-0.1-2,0.6-3.7,2-5      c1.4-1.4,3.2-2.1,5.5-2.1c2.3,0,4.1,0.6,5.3,1.8c1.3,1.2,1.9,2.7,1.9,4.7c0,1.3-0.4,2.6-1.1,3.7c-0.7,1.1-1.9,2.6-3.7,4.6      l-3.7,4.4l0,0.1h9.1V187.3z" id="XMLID_2481_"/></g></g></g></g></svg>